solid sample_rover
  facet normal 0 0 0
    outer loop
      vertex -1.600000 -0.325000 -1.000000
      vertex -1.600000 0.325000 -1.000000
      vertex 1.600000 0.325000 -1.000000
    endloop
  endfacet
  facet normal 0 0 0
    outer loop
      vertex -1.600000 -0.325000 -1.000000
      vertex 1.600000 0.325000 -1.000000
      vertex 1.600000 -0.325000 -1.000000
    endloop
  endfacet
  facet normal 0 0 0
    outer loop
      vertex -1.600000 -0.325000 1.000000
      vertex 1.600000 -0.325000 1.000000
      vertex 1.600000 0.325000 1.000000
    endloop
  endfacet
  facet normal 0 0 0
    outer loop
      vertex -1.600000 -0.325000 1.000000
      vertex 1.600000 0.325000 1.000000
      vertex -1.600000 0.325000 1.000000
    endloop
  endfacet
  facet normal 0 0 0
    outer loop
      vertex -1.600000 -0.325000 -1.000000
      vertex 1.600000 -0.325000 -1.000000
      vertex 1.600000 -0.325000 1.000000
    endloop
  endfacet
  facet normal 0 0 0
    outer loop
      vertex -1.600000 -0.325000 -1.000000
      vertex 1.600000 -0.325000 1.000000
      vertex -1.600000 -0.325000 1.000000
    endloop
  endfacet
  facet normal 0 0 0
    outer loop
      vertex -1.600000 0.325000 -1.000000
      vertex -1.600000 0.325000 1.000000
      vertex 1.600000 0.325000 1.000000
    endloop
  endfacet
  facet normal 0 0 0
    outer loop
      vertex -1.600000 0.325000 -1.000000
      vertex 1.600000 0.325000 1.000000
      vertex 1.600000 0.325000 -1.000000
    endloop
  endfacet
  facet normal 0 0 0
    outer loop
      vertex -1.600000 -0.325000 -1.000000
      vertex -1.600000 -0.325000 1.000000
      vertex -1.600000 0.325000 1.000000
    endloop
  endfacet
  facet normal 0 0 0
    outer loop
      vertex -1.600000 -0.325000 -1.000000
      vertex -1.600000 0.325000 1.000000
      vertex -1.600000 0.325000 -1.000000
    endloop
  endfacet
  facet normal 0 0 0
    outer loop
      vertex 1.600000 -0.325000 -1.000000
      vertex 1.600000 0.325000 -1.000000
      vertex 1.600000 0.325000 1.000000
    endloop
  endfacet
  facet normal 0 0 0
    outer loop
      vertex 1.600000 -0.325000 -1.000000
      vertex 1.600000 0.325000 1.000000
      vertex 1.600000 -0.325000 1.000000
    endloop
  endfacet
  facet normal 0 0 0
    outer loop
      vertex -0.950000 0.260000 -0.825000
      vertex -0.950000 0.980000 -0.825000
      vertex 0.950000 0.980000 -0.825000
    endloop
  endfacet
  facet normal 0 0 0
    outer loop
      vertex -0.950000 0.260000 -0.825000
      vertex 0.950000 0.980000 -0.825000
      vertex 0.950000 0.260000 -0.825000
    endloop
  endfacet
  facet normal 0 0 0
    outer loop
      vertex -0.950000 0.260000 0.525000
      vertex 0.950000 0.260000 0.525000
      vertex 0.950000 0.980000 0.525000
    endloop
  endfacet
  facet normal 0 0 0
    outer loop
      vertex -0.950000 0.260000 0.525000
      vertex 0.950000 0.980000 0.525000
      vertex -0.950000 0.980000 0.525000
    endloop
  endfacet
  facet normal 0 0 0
    outer loop
      vertex -0.950000 0.260000 -0.825000
      vertex 0.950000 0.260000 -0.825000
      vertex 0.950000 0.260000 0.525000
    endloop
  endfacet
  facet normal 0 0 0
    outer loop
      vertex -0.950000 0.260000 -0.825000
      vertex 0.950000 0.260000 0.525000
      vertex -0.950000 0.260000 0.525000
    endloop
  endfacet
  facet normal 0 0 0
    outer loop
      vertex -0.950000 0.980000 -0.825000
      vertex -0.950000 0.980000 0.525000
      vertex 0.950000 0.980000 0.525000
    endloop
  endfacet
  facet normal 0 0 0
    outer loop
      vertex -0.950000 0.980000 -0.825000
      vertex 0.950000 0.980000 0.525000
      vertex 0.950000 0.980000 -0.825000
    endloop
  endfacet
  facet normal 0 0 0
    outer loop
      vertex -0.950000 0.260000 -0.825000
      vertex -0.950000 0.260000 0.525000
      vertex -0.950000 0.980000 0.525000
    endloop
  endfacet
  facet normal 0 0 0
    outer loop
      vertex -0.950000 0.260000 -0.825000
      vertex -0.950000 0.980000 0.525000
      vertex -0.950000 0.980000 -0.825000
    endloop
  endfacet
  facet normal 0 0 0
    outer loop
      vertex 0.950000 0.260000 -0.825000
      vertex 0.950000 0.980000 -0.825000
      vertex 0.950000 0.980000 0.525000
    endloop
  endfacet
  facet normal 0 0 0
    outer loop
      vertex 0.950000 0.260000 -0.825000
      vertex 0.950000 0.980000 0.525000
      vertex 0.950000 0.260000 0.525000
    endloop
  endfacet
  facet normal 0 0 0
    outer loop
      vertex -0.120000 0.950000 -0.270000
      vertex -0.120000 1.370000 -0.270000
      vertex 0.120000 1.370000 -0.270000
    endloop
  endfacet
  facet normal 0 0 0
    outer loop
      vertex -0.120000 0.950000 -0.270000
      vertex 0.120000 1.370000 -0.270000
      vertex 0.120000 0.950000 -0.270000
    endloop
  endfacet
  facet normal 0 0 0
    outer loop
      vertex -0.120000 0.950000 -0.030000
      vertex 0.120000 0.950000 -0.030000
      vertex 0.120000 1.370000 -0.030000
    endloop
  endfacet
  facet normal 0 0 0
    outer loop
      vertex -0.120000 0.950000 -0.030000
      vertex 0.120000 1.370000 -0.030000
      vertex -0.120000 1.370000 -0.030000
    endloop
  endfacet
  facet normal 0 0 0
    outer loop
      vertex -0.120000 0.950000 -0.270000
      vertex 0.120000 0.950000 -0.270000
      vertex 0.120000 0.950000 -0.030000
    endloop
  endfacet
  facet normal 0 0 0
    outer loop
      vertex -0.120000 0.950000 -0.270000
      vertex 0.120000 0.950000 -0.030000
      vertex -0.120000 0.950000 -0.030000
    endloop
  endfacet
  facet normal 0 0 0
    outer loop
      vertex -0.120000 1.370000 -0.270000
      vertex -0.120000 1.370000 -0.030000
      vertex 0.120000 1.370000 -0.030000
    endloop
  endfacet
  facet normal 0 0 0
    outer loop
      vertex -0.120000 1.370000 -0.270000
      vertex 0.120000 1.370000 -0.030000
      vertex 0.120000 1.370000 -0.270000
    endloop
  endfacet
  facet normal 0 0 0
    outer loop
      vertex -0.120000 0.950000 -0.270000
      vertex -0.120000 0.950000 -0.030000
      vertex -0.120000 1.370000 -0.030000
    endloop
  endfacet
  facet normal 0 0 0
    outer loop
      vertex -0.120000 0.950000 -0.270000
      vertex -0.120000 1.370000 -0.030000
      vertex -0.120000 1.370000 -0.270000
    endloop
  endfacet
  facet normal 0 0 0
    outer loop
      vertex 0.120000 0.950000 -0.270000
      vertex 0.120000 1.370000 -0.270000
      vertex 0.120000 1.370000 -0.030000
    endloop
  endfacet
  facet normal 0 0 0
    outer loop
      vertex 0.120000 0.950000 -0.270000
      vertex 0.120000 1.370000 -0.030000
      vertex 0.120000 0.950000 -0.030000
    endloop
  endfacet
  facet normal 0 0 0
    outer loop
      vertex -0.360000 1.340000 -0.240000
      vertex -0.360000 1.500000 -0.240000
      vertex 0.360000 1.500000 -0.240000
    endloop
  endfacet
  facet normal 0 0 0
    outer loop
      vertex -0.360000 1.340000 -0.240000
      vertex 0.360000 1.500000 -0.240000
      vertex 0.360000 1.340000 -0.240000
    endloop
  endfacet
  facet normal 0 0 0
    outer loop
      vertex -0.360000 1.340000 -0.060000
      vertex 0.360000 1.340000 -0.060000
      vertex 0.360000 1.500000 -0.060000
    endloop
  endfacet
  facet normal 0 0 0
    outer loop
      vertex -0.360000 1.340000 -0.060000
      vertex 0.360000 1.500000 -0.060000
      vertex -0.360000 1.500000 -0.060000
    endloop
  endfacet
  facet normal 0 0 0
    outer loop
      vertex -0.360000 1.340000 -0.240000
      vertex 0.360000 1.340000 -0.240000
      vertex 0.360000 1.340000 -0.060000
    endloop
  endfacet
  facet normal 0 0 0
    outer loop
      vertex -0.360000 1.340000 -0.240000
      vertex 0.360000 1.340000 -0.060000
      vertex -0.360000 1.340000 -0.060000
    endloop
  endfacet
  facet normal 0 0 0
    outer loop
      vertex -0.360000 1.500000 -0.240000
      vertex -0.360000 1.500000 -0.060000
      vertex 0.360000 1.500000 -0.060000
    endloop
  endfacet
  facet normal 0 0 0
    outer loop
      vertex -0.360000 1.500000 -0.240000
      vertex 0.360000 1.500000 -0.060000
      vertex 0.360000 1.500000 -0.240000
    endloop
  endfacet
  facet normal 0 0 0
    outer loop
      vertex -0.360000 1.340000 -0.240000
      vertex -0.360000 1.340000 -0.060000
      vertex -0.360000 1.500000 -0.060000
    endloop
  endfacet
  facet normal 0 0 0
    outer loop
      vertex -0.360000 1.340000 -0.240000
      vertex -0.360000 1.500000 -0.060000
      vertex -0.360000 1.500000 -0.240000
    endloop
  endfacet
  facet normal 0 0 0
    outer loop
      vertex 0.360000 1.340000 -0.240000
      vertex 0.360000 1.500000 -0.240000
      vertex 0.360000 1.500000 -0.060000
    endloop
  endfacet
  facet normal 0 0 0
    outer loop
      vertex 0.360000 1.340000 -0.240000
      vertex 0.360000 1.500000 -0.060000
      vertex 0.360000 1.340000 -0.060000
    endloop
  endfacet
  facet normal 0 0 0
    outer loop
      vertex -1.830000 0.100000 -0.700000
      vertex -1.410000 0.100000 -0.700000
      vertex -1.410000 0.035692 -0.460000
    endloop
  endfacet
  facet normal 0 0 0
    outer loop
      vertex -1.830000 0.100000 -0.700000
      vertex -1.410000 0.035692 -0.460000
      vertex -1.830000 0.035692 -0.460000
    endloop
  endfacet
  facet normal 0 0 0
    outer loop
      vertex -1.830000 -0.380000 -0.700000
      vertex -1.830000 0.035692 -0.460000
      vertex -1.830000 0.100000 -0.700000
    endloop
  endfacet
  facet normal 0 0 0
    outer loop
      vertex -1.410000 -0.380000 -0.700000
      vertex -1.410000 0.100000 -0.700000
      vertex -1.410000 0.035692 -0.460000
    endloop
  endfacet
  facet normal 0 0 0
    outer loop
      vertex -1.830000 0.035692 -0.460000
      vertex -1.410000 0.035692 -0.460000
      vertex -1.410000 -0.140000 -0.284308
    endloop
  endfacet
  facet normal 0 0 0
    outer loop
      vertex -1.830000 0.035692 -0.460000
      vertex -1.410000 -0.140000 -0.284308
      vertex -1.830000 -0.140000 -0.284308
    endloop
  endfacet
  facet normal 0 0 0
    outer loop
      vertex -1.830000 -0.380000 -0.700000
      vertex -1.830000 -0.140000 -0.284308
      vertex -1.830000 0.035692 -0.460000
    endloop
  endfacet
  facet normal 0 0 0
    outer loop
      vertex -1.410000 -0.380000 -0.700000
      vertex -1.410000 0.035692 -0.460000
      vertex -1.410000 -0.140000 -0.284308
    endloop
  endfacet
  facet normal 0 0 0
    outer loop
      vertex -1.830000 -0.140000 -0.284308
      vertex -1.410000 -0.140000 -0.284308
      vertex -1.410000 -0.380000 -0.220000
    endloop
  endfacet
  facet normal 0 0 0
    outer loop
      vertex -1.830000 -0.140000 -0.284308
      vertex -1.410000 -0.380000 -0.220000
      vertex -1.830000 -0.380000 -0.220000
    endloop
  endfacet
  facet normal 0 0 0
    outer loop
      vertex -1.830000 -0.380000 -0.700000
      vertex -1.830000 -0.380000 -0.220000
      vertex -1.830000 -0.140000 -0.284308
    endloop
  endfacet
  facet normal 0 0 0
    outer loop
      vertex -1.410000 -0.380000 -0.700000
      vertex -1.410000 -0.140000 -0.284308
      vertex -1.410000 -0.380000 -0.220000
    endloop
  endfacet
  facet normal 0 0 0
    outer loop
      vertex -1.830000 -0.380000 -0.220000
      vertex -1.410000 -0.380000 -0.220000
      vertex -1.410000 -0.620000 -0.284308
    endloop
  endfacet
  facet normal 0 0 0
    outer loop
      vertex -1.830000 -0.380000 -0.220000
      vertex -1.410000 -0.620000 -0.284308
      vertex -1.830000 -0.620000 -0.284308
    endloop
  endfacet
  facet normal 0 0 0
    outer loop
      vertex -1.830000 -0.380000 -0.700000
      vertex -1.830000 -0.620000 -0.284308
      vertex -1.830000 -0.380000 -0.220000
    endloop
  endfacet
  facet normal 0 0 0
    outer loop
      vertex -1.410000 -0.380000 -0.700000
      vertex -1.410000 -0.380000 -0.220000
      vertex -1.410000 -0.620000 -0.284308
    endloop
  endfacet
  facet normal 0 0 0
    outer loop
      vertex -1.830000 -0.620000 -0.284308
      vertex -1.410000 -0.620000 -0.284308
      vertex -1.410000 -0.795692 -0.460000
    endloop
  endfacet
  facet normal 0 0 0
    outer loop
      vertex -1.830000 -0.620000 -0.284308
      vertex -1.410000 -0.795692 -0.460000
      vertex -1.830000 -0.795692 -0.460000
    endloop
  endfacet
  facet normal 0 0 0
    outer loop
      vertex -1.830000 -0.380000 -0.700000
      vertex -1.830000 -0.795692 -0.460000
      vertex -1.830000 -0.620000 -0.284308
    endloop
  endfacet
  facet normal 0 0 0
    outer loop
      vertex -1.410000 -0.380000 -0.700000
      vertex -1.410000 -0.620000 -0.284308
      vertex -1.410000 -0.795692 -0.460000
    endloop
  endfacet
  facet normal 0 0 0
    outer loop
      vertex -1.830000 -0.795692 -0.460000
      vertex -1.410000 -0.795692 -0.460000
      vertex -1.410000 -0.860000 -0.700000
    endloop
  endfacet
  facet normal 0 0 0
    outer loop
      vertex -1.830000 -0.795692 -0.460000
      vertex -1.410000 -0.860000 -0.700000
      vertex -1.830000 -0.860000 -0.700000
    endloop
  endfacet
  facet normal 0 0 0
    outer loop
      vertex -1.830000 -0.380000 -0.700000
      vertex -1.830000 -0.860000 -0.700000
      vertex -1.830000 -0.795692 -0.460000
    endloop
  endfacet
  facet normal 0 0 0
    outer loop
      vertex -1.410000 -0.380000 -0.700000
      vertex -1.410000 -0.795692 -0.460000
      vertex -1.410000 -0.860000 -0.700000
    endloop
  endfacet
  facet normal 0 0 0
    outer loop
      vertex -1.830000 -0.860000 -0.700000
      vertex -1.410000 -0.860000 -0.700000
      vertex -1.410000 -0.795692 -0.940000
    endloop
  endfacet
  facet normal 0 0 0
    outer loop
      vertex -1.830000 -0.860000 -0.700000
      vertex -1.410000 -0.795692 -0.940000
      vertex -1.830000 -0.795692 -0.940000
    endloop
  endfacet
  facet normal 0 0 0
    outer loop
      vertex -1.830000 -0.380000 -0.700000
      vertex -1.830000 -0.795692 -0.940000
      vertex -1.830000 -0.860000 -0.700000
    endloop
  endfacet
  facet normal 0 0 0
    outer loop
      vertex -1.410000 -0.380000 -0.700000
      vertex -1.410000 -0.860000 -0.700000
      vertex -1.410000 -0.795692 -0.940000
    endloop
  endfacet
  facet normal 0 0 0
    outer loop
      vertex -1.830000 -0.795692 -0.940000
      vertex -1.410000 -0.795692 -0.940000
      vertex -1.410000 -0.620000 -1.115692
    endloop
  endfacet
  facet normal 0 0 0
    outer loop
      vertex -1.830000 -0.795692 -0.940000
      vertex -1.410000 -0.620000 -1.115692
      vertex -1.830000 -0.620000 -1.115692
    endloop
  endfacet
  facet normal 0 0 0
    outer loop
      vertex -1.830000 -0.380000 -0.700000
      vertex -1.830000 -0.620000 -1.115692
      vertex -1.830000 -0.795692 -0.940000
    endloop
  endfacet
  facet normal 0 0 0
    outer loop
      vertex -1.410000 -0.380000 -0.700000
      vertex -1.410000 -0.795692 -0.940000
      vertex -1.410000 -0.620000 -1.115692
    endloop
  endfacet
  facet normal 0 0 0
    outer loop
      vertex -1.830000 -0.620000 -1.115692
      vertex -1.410000 -0.620000 -1.115692
      vertex -1.410000 -0.380000 -1.180000
    endloop
  endfacet
  facet normal 0 0 0
    outer loop
      vertex -1.830000 -0.620000 -1.115692
      vertex -1.410000 -0.380000 -1.180000
      vertex -1.830000 -0.380000 -1.180000
    endloop
  endfacet
  facet normal 0 0 0
    outer loop
      vertex -1.830000 -0.380000 -0.700000
      vertex -1.830000 -0.380000 -1.180000
      vertex -1.830000 -0.620000 -1.115692
    endloop
  endfacet
  facet normal 0 0 0
    outer loop
      vertex -1.410000 -0.380000 -0.700000
      vertex -1.410000 -0.620000 -1.115692
      vertex -1.410000 -0.380000 -1.180000
    endloop
  endfacet
  facet normal 0 0 0
    outer loop
      vertex -1.830000 -0.380000 -1.180000
      vertex -1.410000 -0.380000 -1.180000
      vertex -1.410000 -0.140000 -1.115692
    endloop
  endfacet
  facet normal 0 0 0
    outer loop
      vertex -1.830000 -0.380000 -1.180000
      vertex -1.410000 -0.140000 -1.115692
      vertex -1.830000 -0.140000 -1.115692
    endloop
  endfacet
  facet normal 0 0 0
    outer loop
      vertex -1.830000 -0.380000 -0.700000
      vertex -1.830000 -0.140000 -1.115692
      vertex -1.830000 -0.380000 -1.180000
    endloop
  endfacet
  facet normal 0 0 0
    outer loop
      vertex -1.410000 -0.380000 -0.700000
      vertex -1.410000 -0.380000 -1.180000
      vertex -1.410000 -0.140000 -1.115692
    endloop
  endfacet
  facet normal 0 0 0
    outer loop
      vertex -1.830000 -0.140000 -1.115692
      vertex -1.410000 -0.140000 -1.115692
      vertex -1.410000 0.035692 -0.940000
    endloop
  endfacet
  facet normal 0 0 0
    outer loop
      vertex -1.830000 -0.140000 -1.115692
      vertex -1.410000 0.035692 -0.940000
      vertex -1.830000 0.035692 -0.940000
    endloop
  endfacet
  facet normal 0 0 0
    outer loop
      vertex -1.830000 -0.380000 -0.700000
      vertex -1.830000 0.035692 -0.940000
      vertex -1.830000 -0.140000 -1.115692
    endloop
  endfacet
  facet normal 0 0 0
    outer loop
      vertex -1.410000 -0.380000 -0.700000
      vertex -1.410000 -0.140000 -1.115692
      vertex -1.410000 0.035692 -0.940000
    endloop
  endfacet
  facet normal 0 0 0
    outer loop
      vertex -1.830000 0.035692 -0.940000
      vertex -1.410000 0.035692 -0.940000
      vertex -1.410000 0.100000 -0.700000
    endloop
  endfacet
  facet normal 0 0 0
    outer loop
      vertex -1.830000 0.035692 -0.940000
      vertex -1.410000 0.100000 -0.700000
      vertex -1.830000 0.100000 -0.700000
    endloop
  endfacet
  facet normal 0 0 0
    outer loop
      vertex -1.830000 -0.380000 -0.700000
      vertex -1.830000 0.100000 -0.700000
      vertex -1.830000 0.035692 -0.940000
    endloop
  endfacet
  facet normal 0 0 0
    outer loop
      vertex -1.410000 -0.380000 -0.700000
      vertex -1.410000 0.035692 -0.940000
      vertex -1.410000 0.100000 -0.700000
    endloop
  endfacet
  facet normal 0 0 0
    outer loop
      vertex -1.830000 0.100000 0.700000
      vertex -1.410000 0.100000 0.700000
      vertex -1.410000 0.035692 0.940000
    endloop
  endfacet
  facet normal 0 0 0
    outer loop
      vertex -1.830000 0.100000 0.700000
      vertex -1.410000 0.035692 0.940000
      vertex -1.830000 0.035692 0.940000
    endloop
  endfacet
  facet normal 0 0 0
    outer loop
      vertex -1.830000 -0.380000 0.700000
      vertex -1.830000 0.035692 0.940000
      vertex -1.830000 0.100000 0.700000
    endloop
  endfacet
  facet normal 0 0 0
    outer loop
      vertex -1.410000 -0.380000 0.700000
      vertex -1.410000 0.100000 0.700000
      vertex -1.410000 0.035692 0.940000
    endloop
  endfacet
  facet normal 0 0 0
    outer loop
      vertex -1.830000 0.035692 0.940000
      vertex -1.410000 0.035692 0.940000
      vertex -1.410000 -0.140000 1.115692
    endloop
  endfacet
  facet normal 0 0 0
    outer loop
      vertex -1.830000 0.035692 0.940000
      vertex -1.410000 -0.140000 1.115692
      vertex -1.830000 -0.140000 1.115692
    endloop
  endfacet
  facet normal 0 0 0
    outer loop
      vertex -1.830000 -0.380000 0.700000
      vertex -1.830000 -0.140000 1.115692
      vertex -1.830000 0.035692 0.940000
    endloop
  endfacet
  facet normal 0 0 0
    outer loop
      vertex -1.410000 -0.380000 0.700000
      vertex -1.410000 0.035692 0.940000
      vertex -1.410000 -0.140000 1.115692
    endloop
  endfacet
  facet normal 0 0 0
    outer loop
      vertex -1.830000 -0.140000 1.115692
      vertex -1.410000 -0.140000 1.115692
      vertex -1.410000 -0.380000 1.180000
    endloop
  endfacet
  facet normal 0 0 0
    outer loop
      vertex -1.830000 -0.140000 1.115692
      vertex -1.410000 -0.380000 1.180000
      vertex -1.830000 -0.380000 1.180000
    endloop
  endfacet
  facet normal 0 0 0
    outer loop
      vertex -1.830000 -0.380000 0.700000
      vertex -1.830000 -0.380000 1.180000
      vertex -1.830000 -0.140000 1.115692
    endloop
  endfacet
  facet normal 0 0 0
    outer loop
      vertex -1.410000 -0.380000 0.700000
      vertex -1.410000 -0.140000 1.115692
      vertex -1.410000 -0.380000 1.180000
    endloop
  endfacet
  facet normal 0 0 0
    outer loop
      vertex -1.830000 -0.380000 1.180000
      vertex -1.410000 -0.380000 1.180000
      vertex -1.410000 -0.620000 1.115692
    endloop
  endfacet
  facet normal 0 0 0
    outer loop
      vertex -1.830000 -0.380000 1.180000
      vertex -1.410000 -0.620000 1.115692
      vertex -1.830000 -0.620000 1.115692
    endloop
  endfacet
  facet normal 0 0 0
    outer loop
      vertex -1.830000 -0.380000 0.700000
      vertex -1.830000 -0.620000 1.115692
      vertex -1.830000 -0.380000 1.180000
    endloop
  endfacet
  facet normal 0 0 0
    outer loop
      vertex -1.410000 -0.380000 0.700000
      vertex -1.410000 -0.380000 1.180000
      vertex -1.410000 -0.620000 1.115692
    endloop
  endfacet
  facet normal 0 0 0
    outer loop
      vertex -1.830000 -0.620000 1.115692
      vertex -1.410000 -0.620000 1.115692
      vertex -1.410000 -0.795692 0.940000
    endloop
  endfacet
  facet normal 0 0 0
    outer loop
      vertex -1.830000 -0.620000 1.115692
      vertex -1.410000 -0.795692 0.940000
      vertex -1.830000 -0.795692 0.940000
    endloop
  endfacet
  facet normal 0 0 0
    outer loop
      vertex -1.830000 -0.380000 0.700000
      vertex -1.830000 -0.795692 0.940000
      vertex -1.830000 -0.620000 1.115692
    endloop
  endfacet
  facet normal 0 0 0
    outer loop
      vertex -1.410000 -0.380000 0.700000
      vertex -1.410000 -0.620000 1.115692
      vertex -1.410000 -0.795692 0.940000
    endloop
  endfacet
  facet normal 0 0 0
    outer loop
      vertex -1.830000 -0.795692 0.940000
      vertex -1.410000 -0.795692 0.940000
      vertex -1.410000 -0.860000 0.700000
    endloop
  endfacet
  facet normal 0 0 0
    outer loop
      vertex -1.830000 -0.795692 0.940000
      vertex -1.410000 -0.860000 0.700000
      vertex -1.830000 -0.860000 0.700000
    endloop
  endfacet
  facet normal 0 0 0
    outer loop
      vertex -1.830000 -0.380000 0.700000
      vertex -1.830000 -0.860000 0.700000
      vertex -1.830000 -0.795692 0.940000
    endloop
  endfacet
  facet normal 0 0 0
    outer loop
      vertex -1.410000 -0.380000 0.700000
      vertex -1.410000 -0.795692 0.940000
      vertex -1.410000 -0.860000 0.700000
    endloop
  endfacet
  facet normal 0 0 0
    outer loop
      vertex -1.830000 -0.860000 0.700000
      vertex -1.410000 -0.860000 0.700000
      vertex -1.410000 -0.795692 0.460000
    endloop
  endfacet
  facet normal 0 0 0
    outer loop
      vertex -1.830000 -0.860000 0.700000
      vertex -1.410000 -0.795692 0.460000
      vertex -1.830000 -0.795692 0.460000
    endloop
  endfacet
  facet normal 0 0 0
    outer loop
      vertex -1.830000 -0.380000 0.700000
      vertex -1.830000 -0.795692 0.460000
      vertex -1.830000 -0.860000 0.700000
    endloop
  endfacet
  facet normal 0 0 0
    outer loop
      vertex -1.410000 -0.380000 0.700000
      vertex -1.410000 -0.860000 0.700000
      vertex -1.410000 -0.795692 0.460000
    endloop
  endfacet
  facet normal 0 0 0
    outer loop
      vertex -1.830000 -0.795692 0.460000
      vertex -1.410000 -0.795692 0.460000
      vertex -1.410000 -0.620000 0.284308
    endloop
  endfacet
  facet normal 0 0 0
    outer loop
      vertex -1.830000 -0.795692 0.460000
      vertex -1.410000 -0.620000 0.284308
      vertex -1.830000 -0.620000 0.284308
    endloop
  endfacet
  facet normal 0 0 0
    outer loop
      vertex -1.830000 -0.380000 0.700000
      vertex -1.830000 -0.620000 0.284308
      vertex -1.830000 -0.795692 0.460000
    endloop
  endfacet
  facet normal 0 0 0
    outer loop
      vertex -1.410000 -0.380000 0.700000
      vertex -1.410000 -0.795692 0.460000
      vertex -1.410000 -0.620000 0.284308
    endloop
  endfacet
  facet normal 0 0 0
    outer loop
      vertex -1.830000 -0.620000 0.284308
      vertex -1.410000 -0.620000 0.284308
      vertex -1.410000 -0.380000 0.220000
    endloop
  endfacet
  facet normal 0 0 0
    outer loop
      vertex -1.830000 -0.620000 0.284308
      vertex -1.410000 -0.380000 0.220000
      vertex -1.830000 -0.380000 0.220000
    endloop
  endfacet
  facet normal 0 0 0
    outer loop
      vertex -1.830000 -0.380000 0.700000
      vertex -1.830000 -0.380000 0.220000
      vertex -1.830000 -0.620000 0.284308
    endloop
  endfacet
  facet normal 0 0 0
    outer loop
      vertex -1.410000 -0.380000 0.700000
      vertex -1.410000 -0.620000 0.284308
      vertex -1.410000 -0.380000 0.220000
    endloop
  endfacet
  facet normal 0 0 0
    outer loop
      vertex -1.830000 -0.380000 0.220000
      vertex -1.410000 -0.380000 0.220000
      vertex -1.410000 -0.140000 0.284308
    endloop
  endfacet
  facet normal 0 0 0
    outer loop
      vertex -1.830000 -0.380000 0.220000
      vertex -1.410000 -0.140000 0.284308
      vertex -1.830000 -0.140000 0.284308
    endloop
  endfacet
  facet normal 0 0 0
    outer loop
      vertex -1.830000 -0.380000 0.700000
      vertex -1.830000 -0.140000 0.284308
      vertex -1.830000 -0.380000 0.220000
    endloop
  endfacet
  facet normal 0 0 0
    outer loop
      vertex -1.410000 -0.380000 0.700000
      vertex -1.410000 -0.380000 0.220000
      vertex -1.410000 -0.140000 0.284308
    endloop
  endfacet
  facet normal 0 0 0
    outer loop
      vertex -1.830000 -0.140000 0.284308
      vertex -1.410000 -0.140000 0.284308
      vertex -1.410000 0.035692 0.460000
    endloop
  endfacet
  facet normal 0 0 0
    outer loop
      vertex -1.830000 -0.140000 0.284308
      vertex -1.410000 0.035692 0.460000
      vertex -1.830000 0.035692 0.460000
    endloop
  endfacet
  facet normal 0 0 0
    outer loop
      vertex -1.830000 -0.380000 0.700000
      vertex -1.830000 0.035692 0.460000
      vertex -1.830000 -0.140000 0.284308
    endloop
  endfacet
  facet normal 0 0 0
    outer loop
      vertex -1.410000 -0.380000 0.700000
      vertex -1.410000 -0.140000 0.284308
      vertex -1.410000 0.035692 0.460000
    endloop
  endfacet
  facet normal 0 0 0
    outer loop
      vertex -1.830000 0.035692 0.460000
      vertex -1.410000 0.035692 0.460000
      vertex -1.410000 0.100000 0.700000
    endloop
  endfacet
  facet normal 0 0 0
    outer loop
      vertex -1.830000 0.035692 0.460000
      vertex -1.410000 0.100000 0.700000
      vertex -1.830000 0.100000 0.700000
    endloop
  endfacet
  facet normal 0 0 0
    outer loop
      vertex -1.830000 -0.380000 0.700000
      vertex -1.830000 0.100000 0.700000
      vertex -1.830000 0.035692 0.460000
    endloop
  endfacet
  facet normal 0 0 0
    outer loop
      vertex -1.410000 -0.380000 0.700000
      vertex -1.410000 0.035692 0.460000
      vertex -1.410000 0.100000 0.700000
    endloop
  endfacet
  facet normal 0 0 0
    outer loop
      vertex 1.410000 0.100000 -0.700000
      vertex 1.830000 0.100000 -0.700000
      vertex 1.830000 0.035692 -0.460000
    endloop
  endfacet
  facet normal 0 0 0
    outer loop
      vertex 1.410000 0.100000 -0.700000
      vertex 1.830000 0.035692 -0.460000
      vertex 1.410000 0.035692 -0.460000
    endloop
  endfacet
  facet normal 0 0 0
    outer loop
      vertex 1.410000 -0.380000 -0.700000
      vertex 1.410000 0.035692 -0.460000
      vertex 1.410000 0.100000 -0.700000
    endloop
  endfacet
  facet normal 0 0 0
    outer loop
      vertex 1.830000 -0.380000 -0.700000
      vertex 1.830000 0.100000 -0.700000
      vertex 1.830000 0.035692 -0.460000
    endloop
  endfacet
  facet normal 0 0 0
    outer loop
      vertex 1.410000 0.035692 -0.460000
      vertex 1.830000 0.035692 -0.460000
      vertex 1.830000 -0.140000 -0.284308
    endloop
  endfacet
  facet normal 0 0 0
    outer loop
      vertex 1.410000 0.035692 -0.460000
      vertex 1.830000 -0.140000 -0.284308
      vertex 1.410000 -0.140000 -0.284308
    endloop
  endfacet
  facet normal 0 0 0
    outer loop
      vertex 1.410000 -0.380000 -0.700000
      vertex 1.410000 -0.140000 -0.284308
      vertex 1.410000 0.035692 -0.460000
    endloop
  endfacet
  facet normal 0 0 0
    outer loop
      vertex 1.830000 -0.380000 -0.700000
      vertex 1.830000 0.035692 -0.460000
      vertex 1.830000 -0.140000 -0.284308
    endloop
  endfacet
  facet normal 0 0 0
    outer loop
      vertex 1.410000 -0.140000 -0.284308
      vertex 1.830000 -0.140000 -0.284308
      vertex 1.830000 -0.380000 -0.220000
    endloop
  endfacet
  facet normal 0 0 0
    outer loop
      vertex 1.410000 -0.140000 -0.284308
      vertex 1.830000 -0.380000 -0.220000
      vertex 1.410000 -0.380000 -0.220000
    endloop
  endfacet
  facet normal 0 0 0
    outer loop
      vertex 1.410000 -0.380000 -0.700000
      vertex 1.410000 -0.380000 -0.220000
      vertex 1.410000 -0.140000 -0.284308
    endloop
  endfacet
  facet normal 0 0 0
    outer loop
      vertex 1.830000 -0.380000 -0.700000
      vertex 1.830000 -0.140000 -0.284308
      vertex 1.830000 -0.380000 -0.220000
    endloop
  endfacet
  facet normal 0 0 0
    outer loop
      vertex 1.410000 -0.380000 -0.220000
      vertex 1.830000 -0.380000 -0.220000
      vertex 1.830000 -0.620000 -0.284308
    endloop
  endfacet
  facet normal 0 0 0
    outer loop
      vertex 1.410000 -0.380000 -0.220000
      vertex 1.830000 -0.620000 -0.284308
      vertex 1.410000 -0.620000 -0.284308
    endloop
  endfacet
  facet normal 0 0 0
    outer loop
      vertex 1.410000 -0.380000 -0.700000
      vertex 1.410000 -0.620000 -0.284308
      vertex 1.410000 -0.380000 -0.220000
    endloop
  endfacet
  facet normal 0 0 0
    outer loop
      vertex 1.830000 -0.380000 -0.700000
      vertex 1.830000 -0.380000 -0.220000
      vertex 1.830000 -0.620000 -0.284308
    endloop
  endfacet
  facet normal 0 0 0
    outer loop
      vertex 1.410000 -0.620000 -0.284308
      vertex 1.830000 -0.620000 -0.284308
      vertex 1.830000 -0.795692 -0.460000
    endloop
  endfacet
  facet normal 0 0 0
    outer loop
      vertex 1.410000 -0.620000 -0.284308
      vertex 1.830000 -0.795692 -0.460000
      vertex 1.410000 -0.795692 -0.460000
    endloop
  endfacet
  facet normal 0 0 0
    outer loop
      vertex 1.410000 -0.380000 -0.700000
      vertex 1.410000 -0.795692 -0.460000
      vertex 1.410000 -0.620000 -0.284308
    endloop
  endfacet
  facet normal 0 0 0
    outer loop
      vertex 1.830000 -0.380000 -0.700000
      vertex 1.830000 -0.620000 -0.284308
      vertex 1.830000 -0.795692 -0.460000
    endloop
  endfacet
  facet normal 0 0 0
    outer loop
      vertex 1.410000 -0.795692 -0.460000
      vertex 1.830000 -0.795692 -0.460000
      vertex 1.830000 -0.860000 -0.700000
    endloop
  endfacet
  facet normal 0 0 0
    outer loop
      vertex 1.410000 -0.795692 -0.460000
      vertex 1.830000 -0.860000 -0.700000
      vertex 1.410000 -0.860000 -0.700000
    endloop
  endfacet
  facet normal 0 0 0
    outer loop
      vertex 1.410000 -0.380000 -0.700000
      vertex 1.410000 -0.860000 -0.700000
      vertex 1.410000 -0.795692 -0.460000
    endloop
  endfacet
  facet normal 0 0 0
    outer loop
      vertex 1.830000 -0.380000 -0.700000
      vertex 1.830000 -0.795692 -0.460000
      vertex 1.830000 -0.860000 -0.700000
    endloop
  endfacet
  facet normal 0 0 0
    outer loop
      vertex 1.410000 -0.860000 -0.700000
      vertex 1.830000 -0.860000 -0.700000
      vertex 1.830000 -0.795692 -0.940000
    endloop
  endfacet
  facet normal 0 0 0
    outer loop
      vertex 1.410000 -0.860000 -0.700000
      vertex 1.830000 -0.795692 -0.940000
      vertex 1.410000 -0.795692 -0.940000
    endloop
  endfacet
  facet normal 0 0 0
    outer loop
      vertex 1.410000 -0.380000 -0.700000
      vertex 1.410000 -0.795692 -0.940000
      vertex 1.410000 -0.860000 -0.700000
    endloop
  endfacet
  facet normal 0 0 0
    outer loop
      vertex 1.830000 -0.380000 -0.700000
      vertex 1.830000 -0.860000 -0.700000
      vertex 1.830000 -0.795692 -0.940000
    endloop
  endfacet
  facet normal 0 0 0
    outer loop
      vertex 1.410000 -0.795692 -0.940000
      vertex 1.830000 -0.795692 -0.940000
      vertex 1.830000 -0.620000 -1.115692
    endloop
  endfacet
  facet normal 0 0 0
    outer loop
      vertex 1.410000 -0.795692 -0.940000
      vertex 1.830000 -0.620000 -1.115692
      vertex 1.410000 -0.620000 -1.115692
    endloop
  endfacet
  facet normal 0 0 0
    outer loop
      vertex 1.410000 -0.380000 -0.700000
      vertex 1.410000 -0.620000 -1.115692
      vertex 1.410000 -0.795692 -0.940000
    endloop
  endfacet
  facet normal 0 0 0
    outer loop
      vertex 1.830000 -0.380000 -0.700000
      vertex 1.830000 -0.795692 -0.940000
      vertex 1.830000 -0.620000 -1.115692
    endloop
  endfacet
  facet normal 0 0 0
    outer loop
      vertex 1.410000 -0.620000 -1.115692
      vertex 1.830000 -0.620000 -1.115692
      vertex 1.830000 -0.380000 -1.180000
    endloop
  endfacet
  facet normal 0 0 0
    outer loop
      vertex 1.410000 -0.620000 -1.115692
      vertex 1.830000 -0.380000 -1.180000
      vertex 1.410000 -0.380000 -1.180000
    endloop
  endfacet
  facet normal 0 0 0
    outer loop
      vertex 1.410000 -0.380000 -0.700000
      vertex 1.410000 -0.380000 -1.180000
      vertex 1.410000 -0.620000 -1.115692
    endloop
  endfacet
  facet normal 0 0 0
    outer loop
      vertex 1.830000 -0.380000 -0.700000
      vertex 1.830000 -0.620000 -1.115692
      vertex 1.830000 -0.380000 -1.180000
    endloop
  endfacet
  facet normal 0 0 0
    outer loop
      vertex 1.410000 -0.380000 -1.180000
      vertex 1.830000 -0.380000 -1.180000
      vertex 1.830000 -0.140000 -1.115692
    endloop
  endfacet
  facet normal 0 0 0
    outer loop
      vertex 1.410000 -0.380000 -1.180000
      vertex 1.830000 -0.140000 -1.115692
      vertex 1.410000 -0.140000 -1.115692
    endloop
  endfacet
  facet normal 0 0 0
    outer loop
      vertex 1.410000 -0.380000 -0.700000
      vertex 1.410000 -0.140000 -1.115692
      vertex 1.410000 -0.380000 -1.180000
    endloop
  endfacet
  facet normal 0 0 0
    outer loop
      vertex 1.830000 -0.380000 -0.700000
      vertex 1.830000 -0.380000 -1.180000
      vertex 1.830000 -0.140000 -1.115692
    endloop
  endfacet
  facet normal 0 0 0
    outer loop
      vertex 1.410000 -0.140000 -1.115692
      vertex 1.830000 -0.140000 -1.115692
      vertex 1.830000 0.035692 -0.940000
    endloop
  endfacet
  facet normal 0 0 0
    outer loop
      vertex 1.410000 -0.140000 -1.115692
      vertex 1.830000 0.035692 -0.940000
      vertex 1.410000 0.035692 -0.940000
    endloop
  endfacet
  facet normal 0 0 0
    outer loop
      vertex 1.410000 -0.380000 -0.700000
      vertex 1.410000 0.035692 -0.940000
      vertex 1.410000 -0.140000 -1.115692
    endloop
  endfacet
  facet normal 0 0 0
    outer loop
      vertex 1.830000 -0.380000 -0.700000
      vertex 1.830000 -0.140000 -1.115692
      vertex 1.830000 0.035692 -0.940000
    endloop
  endfacet
  facet normal 0 0 0
    outer loop
      vertex 1.410000 0.035692 -0.940000
      vertex 1.830000 0.035692 -0.940000
      vertex 1.830000 0.100000 -0.700000
    endloop
  endfacet
  facet normal 0 0 0
    outer loop
      vertex 1.410000 0.035692 -0.940000
      vertex 1.830000 0.100000 -0.700000
      vertex 1.410000 0.100000 -0.700000
    endloop
  endfacet
  facet normal 0 0 0
    outer loop
      vertex 1.410000 -0.380000 -0.700000
      vertex 1.410000 0.100000 -0.700000
      vertex 1.410000 0.035692 -0.940000
    endloop
  endfacet
  facet normal 0 0 0
    outer loop
      vertex 1.830000 -0.380000 -0.700000
      vertex 1.830000 0.035692 -0.940000
      vertex 1.830000 0.100000 -0.700000
    endloop
  endfacet
  facet normal 0 0 0
    outer loop
      vertex 1.410000 0.100000 0.700000
      vertex 1.830000 0.100000 0.700000
      vertex 1.830000 0.035692 0.940000
    endloop
  endfacet
  facet normal 0 0 0
    outer loop
      vertex 1.410000 0.100000 0.700000
      vertex 1.830000 0.035692 0.940000
      vertex 1.410000 0.035692 0.940000
    endloop
  endfacet
  facet normal 0 0 0
    outer loop
      vertex 1.410000 -0.380000 0.700000
      vertex 1.410000 0.035692 0.940000
      vertex 1.410000 0.100000 0.700000
    endloop
  endfacet
  facet normal 0 0 0
    outer loop
      vertex 1.830000 -0.380000 0.700000
      vertex 1.830000 0.100000 0.700000
      vertex 1.830000 0.035692 0.940000
    endloop
  endfacet
  facet normal 0 0 0
    outer loop
      vertex 1.410000 0.035692 0.940000
      vertex 1.830000 0.035692 0.940000
      vertex 1.830000 -0.140000 1.115692
    endloop
  endfacet
  facet normal 0 0 0
    outer loop
      vertex 1.410000 0.035692 0.940000
      vertex 1.830000 -0.140000 1.115692
      vertex 1.410000 -0.140000 1.115692
    endloop
  endfacet
  facet normal 0 0 0
    outer loop
      vertex 1.410000 -0.380000 0.700000
      vertex 1.410000 -0.140000 1.115692
      vertex 1.410000 0.035692 0.940000
    endloop
  endfacet
  facet normal 0 0 0
    outer loop
      vertex 1.830000 -0.380000 0.700000
      vertex 1.830000 0.035692 0.940000
      vertex 1.830000 -0.140000 1.115692
    endloop
  endfacet
  facet normal 0 0 0
    outer loop
      vertex 1.410000 -0.140000 1.115692
      vertex 1.830000 -0.140000 1.115692
      vertex 1.830000 -0.380000 1.180000
    endloop
  endfacet
  facet normal 0 0 0
    outer loop
      vertex 1.410000 -0.140000 1.115692
      vertex 1.830000 -0.380000 1.180000
      vertex 1.410000 -0.380000 1.180000
    endloop
  endfacet
  facet normal 0 0 0
    outer loop
      vertex 1.410000 -0.380000 0.700000
      vertex 1.410000 -0.380000 1.180000
      vertex 1.410000 -0.140000 1.115692
    endloop
  endfacet
  facet normal 0 0 0
    outer loop
      vertex 1.830000 -0.380000 0.700000
      vertex 1.830000 -0.140000 1.115692
      vertex 1.830000 -0.380000 1.180000
    endloop
  endfacet
  facet normal 0 0 0
    outer loop
      vertex 1.410000 -0.380000 1.180000
      vertex 1.830000 -0.380000 1.180000
      vertex 1.830000 -0.620000 1.115692
    endloop
  endfacet
  facet normal 0 0 0
    outer loop
      vertex 1.410000 -0.380000 1.180000
      vertex 1.830000 -0.620000 1.115692
      vertex 1.410000 -0.620000 1.115692
    endloop
  endfacet
  facet normal 0 0 0
    outer loop
      vertex 1.410000 -0.380000 0.700000
      vertex 1.410000 -0.620000 1.115692
      vertex 1.410000 -0.380000 1.180000
    endloop
  endfacet
  facet normal 0 0 0
    outer loop
      vertex 1.830000 -0.380000 0.700000
      vertex 1.830000 -0.380000 1.180000
      vertex 1.830000 -0.620000 1.115692
    endloop
  endfacet
  facet normal 0 0 0
    outer loop
      vertex 1.410000 -0.620000 1.115692
      vertex 1.830000 -0.620000 1.115692
      vertex 1.830000 -0.795692 0.940000
    endloop
  endfacet
  facet normal 0 0 0
    outer loop
      vertex 1.410000 -0.620000 1.115692
      vertex 1.830000 -0.795692 0.940000
      vertex 1.410000 -0.795692 0.940000
    endloop
  endfacet
  facet normal 0 0 0
    outer loop
      vertex 1.410000 -0.380000 0.700000
      vertex 1.410000 -0.795692 0.940000
      vertex 1.410000 -0.620000 1.115692
    endloop
  endfacet
  facet normal 0 0 0
    outer loop
      vertex 1.830000 -0.380000 0.700000
      vertex 1.830000 -0.620000 1.115692
      vertex 1.830000 -0.795692 0.940000
    endloop
  endfacet
  facet normal 0 0 0
    outer loop
      vertex 1.410000 -0.795692 0.940000
      vertex 1.830000 -0.795692 0.940000
      vertex 1.830000 -0.860000 0.700000
    endloop
  endfacet
  facet normal 0 0 0
    outer loop
      vertex 1.410000 -0.795692 0.940000
      vertex 1.830000 -0.860000 0.700000
      vertex 1.410000 -0.860000 0.700000
    endloop
  endfacet
  facet normal 0 0 0
    outer loop
      vertex 1.410000 -0.380000 0.700000
      vertex 1.410000 -0.860000 0.700000
      vertex 1.410000 -0.795692 0.940000
    endloop
  endfacet
  facet normal 0 0 0
    outer loop
      vertex 1.830000 -0.380000 0.700000
      vertex 1.830000 -0.795692 0.940000
      vertex 1.830000 -0.860000 0.700000
    endloop
  endfacet
  facet normal 0 0 0
    outer loop
      vertex 1.410000 -0.860000 0.700000
      vertex 1.830000 -0.860000 0.700000
      vertex 1.830000 -0.795692 0.460000
    endloop
  endfacet
  facet normal 0 0 0
    outer loop
      vertex 1.410000 -0.860000 0.700000
      vertex 1.830000 -0.795692 0.460000
      vertex 1.410000 -0.795692 0.460000
    endloop
  endfacet
  facet normal 0 0 0
    outer loop
      vertex 1.410000 -0.380000 0.700000
      vertex 1.410000 -0.795692 0.460000
      vertex 1.410000 -0.860000 0.700000
    endloop
  endfacet
  facet normal 0 0 0
    outer loop
      vertex 1.830000 -0.380000 0.700000
      vertex 1.830000 -0.860000 0.700000
      vertex 1.830000 -0.795692 0.460000
    endloop
  endfacet
  facet normal 0 0 0
    outer loop
      vertex 1.410000 -0.795692 0.460000
      vertex 1.830000 -0.795692 0.460000
      vertex 1.830000 -0.620000 0.284308
    endloop
  endfacet
  facet normal 0 0 0
    outer loop
      vertex 1.410000 -0.795692 0.460000
      vertex 1.830000 -0.620000 0.284308
      vertex 1.410000 -0.620000 0.284308
    endloop
  endfacet
  facet normal 0 0 0
    outer loop
      vertex 1.410000 -0.380000 0.700000
      vertex 1.410000 -0.620000 0.284308
      vertex 1.410000 -0.795692 0.460000
    endloop
  endfacet
  facet normal 0 0 0
    outer loop
      vertex 1.830000 -0.380000 0.700000
      vertex 1.830000 -0.795692 0.460000
      vertex 1.830000 -0.620000 0.284308
    endloop
  endfacet
  facet normal 0 0 0
    outer loop
      vertex 1.410000 -0.620000 0.284308
      vertex 1.830000 -0.620000 0.284308
      vertex 1.830000 -0.380000 0.220000
    endloop
  endfacet
  facet normal 0 0 0
    outer loop
      vertex 1.410000 -0.620000 0.284308
      vertex 1.830000 -0.380000 0.220000
      vertex 1.410000 -0.380000 0.220000
    endloop
  endfacet
  facet normal 0 0 0
    outer loop
      vertex 1.410000 -0.380000 0.700000
      vertex 1.410000 -0.380000 0.220000
      vertex 1.410000 -0.620000 0.284308
    endloop
  endfacet
  facet normal 0 0 0
    outer loop
      vertex 1.830000 -0.380000 0.700000
      vertex 1.830000 -0.620000 0.284308
      vertex 1.830000 -0.380000 0.220000
    endloop
  endfacet
  facet normal 0 0 0
    outer loop
      vertex 1.410000 -0.380000 0.220000
      vertex 1.830000 -0.380000 0.220000
      vertex 1.830000 -0.140000 0.284308
    endloop
  endfacet
  facet normal 0 0 0
    outer loop
      vertex 1.410000 -0.380000 0.220000
      vertex 1.830000 -0.140000 0.284308
      vertex 1.410000 -0.140000 0.284308
    endloop
  endfacet
  facet normal 0 0 0
    outer loop
      vertex 1.410000 -0.380000 0.700000
      vertex 1.410000 -0.140000 0.284308
      vertex 1.410000 -0.380000 0.220000
    endloop
  endfacet
  facet normal 0 0 0
    outer loop
      vertex 1.830000 -0.380000 0.700000
      vertex 1.830000 -0.380000 0.220000
      vertex 1.830000 -0.140000 0.284308
    endloop
  endfacet
  facet normal 0 0 0
    outer loop
      vertex 1.410000 -0.140000 0.284308
      vertex 1.830000 -0.140000 0.284308
      vertex 1.830000 0.035692 0.460000
    endloop
  endfacet
  facet normal 0 0 0
    outer loop
      vertex 1.410000 -0.140000 0.284308
      vertex 1.830000 0.035692 0.460000
      vertex 1.410000 0.035692 0.460000
    endloop
  endfacet
  facet normal 0 0 0
    outer loop
      vertex 1.410000 -0.380000 0.700000
      vertex 1.410000 0.035692 0.460000
      vertex 1.410000 -0.140000 0.284308
    endloop
  endfacet
  facet normal 0 0 0
    outer loop
      vertex 1.830000 -0.380000 0.700000
      vertex 1.830000 -0.140000 0.284308
      vertex 1.830000 0.035692 0.460000
    endloop
  endfacet
  facet normal 0 0 0
    outer loop
      vertex 1.410000 0.035692 0.460000
      vertex 1.830000 0.035692 0.460000
      vertex 1.830000 0.100000 0.700000
    endloop
  endfacet
  facet normal 0 0 0
    outer loop
      vertex 1.410000 0.035692 0.460000
      vertex 1.830000 0.100000 0.700000
      vertex 1.410000 0.100000 0.700000
    endloop
  endfacet
  facet normal 0 0 0
    outer loop
      vertex 1.410000 -0.380000 0.700000
      vertex 1.410000 0.100000 0.700000
      vertex 1.410000 0.035692 0.460000
    endloop
  endfacet
  facet normal 0 0 0
    outer loop
      vertex 1.830000 -0.380000 0.700000
      vertex 1.830000 0.035692 0.460000
      vertex 1.830000 0.100000 0.700000
    endloop
  endfacet
endsolid sample_rover
